<svg width="21" height="21" viewBox="0 0 21 21" fill="none" xmlns="http://www.w3.org/2000/svg">
<g clip-path="url(#clip0_12164_710)">
<path d="M15.75 12.6C16.149 12.6 16.5165 12.3795 16.6845 12.0225L20.8845 3.6225C21.0525 3.297 21.0315 2.9085 20.8425 2.604C20.6535 2.2995 20.034 2.0685 19.5405 2.352C19.1205 2.5935 15.1095 10.5 15.1095 10.5H6.111L4.179 0.84C4.0845 0.3465 3.654 0 3.15 0H1.05C0.4725 0 0 0.4725 0 1.05C0 1.6275 0.4725 2.1 1.05 2.1H2.289L2.541 3.36L4.116 11.214L2.1105 13.2195C1.1025 14.2275 1.4175 15.7815 2.4465 16.464C2.2365 16.884 2.1105 17.3565 2.1105 17.8605C2.1105 19.6035 3.5175 21.0105 5.2605 21.0105C7.0035 21.0105 8.4105 19.6035 8.4105 17.8605C8.4105 17.493 8.337 17.136 8.2215 16.8105H12.81C12.6945 17.136 12.621 17.493 12.621 17.8605C12.621 19.6035 14.028 21.0105 15.771 21.0105C17.514 21.0105 18.921 19.6035 18.921 17.8605C18.921 16.1175 17.514 14.7105 15.771 14.7105H3.5805L5.6805 12.6105H15.75V12.6ZM16.8 17.85C16.8 18.4275 16.3275 18.9 15.75 18.9C15.1725 18.9 14.7 18.4275 14.7 17.85C14.7 17.2725 15.1725 16.8 15.75 16.8C16.3275 16.8 16.8 17.2725 16.8 17.85ZM6.3 17.85C6.3 18.4275 5.8275 18.9 5.25 18.9C4.6725 18.9 4.2 18.4275 4.2 17.85C4.2 17.2725 4.6725 16.8 5.25 16.8C5.8275 16.8 6.3 17.2725 6.3 17.85Z" fill="white"/>
<path d="M13.7414 4.06309H11.6414V1.96309C11.6414 1.38559 11.1689 0.913086 10.5914 0.913086C10.0139 0.913086 9.54136 1.38559 9.54136 1.96309V4.06309H7.44136C6.86386 4.06309 6.39136 4.53559 6.39136 5.11309C6.39136 5.69059 6.86386 6.16309 7.44136 6.16309H9.54136V8.26309C9.54136 8.84059 10.0139 9.31309 10.5914 9.31309C11.1689 9.31309 11.6414 8.84059 11.6414 8.26309V6.16309H13.7414C14.3189 6.16309 14.7914 5.69059 14.7914 5.11309C14.7914 4.53559 14.3189 4.06309 13.7414 4.06309Z" fill="white"/>
</g>
<defs>
<clipPath id="clip0_12164_710">
<rect width="21" height="21" fill="white"/>
</clipPath>
</defs>
</svg>
