<svg width="20" height="20" viewBox="0 0 20 20" fill="none" xmlns="http://www.w3.org/2000/svg">
<path d="M15 11.9999C15.38 11.9999 15.73 11.7899 15.89 11.4499L19.89 3.44993C20.05 3.13993 20.03 2.76993 19.85 2.47993C19.67 2.18993 19.35 2.00993 19 2.00993H4.22L3.98 0.809929C3.89 0.339929 3.48 0.00992913 3 0.00992913H1C0.45 -7.08662e-05 0 0.449929 0 0.999929C0 1.54993 0.45 1.99993 1 1.99993H2.18L2.42 3.19993L3.92 10.6799L2.01 12.5899C1.05 13.5499 1.35 15.0299 2.33 15.6799C2.13 16.0799 2.01 16.5299 2.01 17.0099C2.01 18.6699 3.35 20.0099 5.01 20.0099C6.67 20.0099 8.01 18.6699 8.01 17.0099C8.01 16.6599 7.94 16.3199 7.83 16.0099H12.2C12.09 16.3199 12.02 16.6599 12.02 17.0099C12.02 18.6699 13.36 20.0099 15.02 20.0099C16.68 20.0099 18.02 18.6699 18.02 17.0099C18.02 15.3499 16.68 14.0099 15.02 14.0099H3.41L5.41 12.0099H15V11.9999ZM16 16.9999C16 17.5499 15.55 17.9999 15 17.9999C14.45 17.9999 14 17.5499 14 16.9999C14 16.4499 14.45 15.9999 15 15.9999C15.55 15.9999 16 16.4499 16 16.9999ZM6 16.9999C6 17.5499 5.55 17.9999 5 17.9999C4.45 17.9999 4 17.5499 4 16.9999C4 16.4499 4.45 15.9999 5 15.9999C5.55 15.9999 6 16.4499 6 16.9999ZM14.38 9.99993H5.82L4.62 3.99993H17.38L14.38 9.99993Z" fill="#C4C4C4"/>
</svg>
