<?xml version="1.0" encoding="UTF-8"?><svg id="Livello_1" xmlns="http://www.w3.org/2000/svg" width="37" height="37.3" viewBox="0 0 37 37.3"><defs><style>.cls-1{fill:#0785de;}</style></defs><path class="cls-1" d="M19.93,30.97l-.21-3.37h-1.22c-2.87,0-5.31-1-7.31-3.01-2-2-3.01-4.44-3.01-7.31s1-5.31,3.01-7.31c2-2,4.44-3,7.31-3,1.44,0,2.78.27,4.02.81,1.25.54,2.34,1.28,3.27,2.21.93.93,1.67,2.02,2.21,3.27.54,1.25.81,2.59.81,4.02s-.22,2.85-.67,4.2c-.45,1.34-1.06,2.6-1.85,3.77-.79,1.17-1.72,2.24-2.81,3.21-1.09.97-2.27,1.81-3.56,2.51ZM18.52,24.12c.31,0,.57-.11.79-.33.22-.22.33-.48.33-.79s-.11-.57-.33-.79c-.22-.22-.49-.33-.79-.33s-.57.11-.79.33c-.22.22-.33.49-.33.8s.11.57.33.79c.22.22.49.33.79.33ZM17.79,20.16h1.49c.02-.56.11-1,.28-1.32.17-.31.57-.78,1.2-1.42.41-.41.73-.82.95-1.22.22-.4.33-.86.33-1.37,0-1.01-.35-1.79-1.04-2.34-.69-.55-1.52-.82-2.47-.82-.86,0-1.6.24-2.2.73-.6.49-1.03,1.07-1.3,1.73l1.39.52c.14-.38.37-.74.7-1.07.32-.33.79-.5,1.4-.5.67,0,1.17.19,1.51.57.34.38.5.78.5,1.22,0,.41-.1.75-.3,1.03s-.49.6-.87.96c-.66.57-1.09,1.07-1.28,1.5-.19.42-.29,1.02-.29,1.8Z"/></svg>