<svg width="14" height="14" viewBox="0 0 14 14" fill="none" xmlns="http://www.w3.org/2000/svg">
<path d="M13.665 12.6826C13.7977 12.9601 13.7508 13.301 13.5205 13.5312C13.2905 13.7609 12.951 13.8068 12.6738 13.6748L13.665 12.6826ZM1.31641 13.665C1.03909 13.7972 0.698796 13.7506 0.46875 13.5205C0.239156 13.2906 0.192433 12.9509 0.324219 12.6738L1.31641 13.665ZM6.64648 8.41992L1.71191 13.3535L0.645508 12.2881L5.58398 7.35742L6.64648 8.41992ZM13.3438 12.2969L12.2871 13.3535L7.35352 8.41992L8.41309 7.35938L13.3438 12.2969ZM8.06055 7.00488L7 8.06641L5.9375 7.00391L7 5.94336L8.06055 7.00488ZM13.3535 1.71191L8.41406 6.65137L7.35449 5.58984L12.2969 0.655273L13.3535 1.71191ZM6.64746 5.58984L5.58398 6.65039L0.645508 1.71191L1.71094 0.645508L6.64746 5.58984ZM0.46875 0.46875C0.698704 0.238796 1.0453 0.192273 1.3252 0.324219L0.324219 1.3252C0.192273 1.0453 0.238796 0.698704 0.46875 0.46875ZM12.6826 0.333984C12.96 0.201594 13.3011 0.249331 13.5312 0.479492C13.7607 0.709285 13.8063 1.04819 13.6748 1.3252L12.6826 0.333984Z" fill="white" stroke="white" stroke-width="0.5"/>
</svg>
