<?xml version="1.0" encoding="UTF-8"?><svg id="Livello_4" xmlns="http://www.w3.org/2000/svg" width="37" height="37.3" viewBox="0 0 37 37.3"><defs><style>.cls-1{fill:#fff;}.cls-2{fill:#0785de;}</style></defs><circle class="cls-2" cx="18.5" cy="18.8" r="18.5"/><path class="cls-1" d="M16.28,18.94v-5.53h-5.06c-.44,0-.8.15-1.11.45s-.45.67-.45,1.11v13.26c0,.44.15.8.45,1.11.3.3.67.45,1.11.45h9.81c.44,0,.8-.15,1.11-.45.3-.3.45-.67.45-1.11v-8.79h-5.81c-.28,0-.5-.22-.5-.5Z"/><polygon class="cls-1" points="22.59 18.44 22.59 17.93 18.07 13.41 17.28 13.41 17.28 18.44 22.59 18.44"/><path class="cls-1" d="M10.09,7.81h1.14v1.57h10.65v-1.57h1.14v4.31h-1.14v-1.57h-10.65v1.57h-1.14v-4.31Z"/><path class="cls-1" d="M23.4,29.79v-1.14h1.57v-13.51h-1.57v-1.29h4.31v1.29h-1.57v13.51h1.57v1.14h-4.31Z"/></svg>