<svg width="24" height="24" viewBox="0 0 24 24" fill="none" xmlns="http://www.w3.org/2000/svg">
	<g transform="scale(1.08) translate(-1.11,-1.11)">
		<path d="M4.56672 22C4.12891 22 3.75833 21.8526 3.455 21.5579C3.15167 21.2632 3 20.9031 3 20.4777V7.52232C3 7.09691 3.15167 6.73684 3.455 6.44211C3.75833 6.14737 4.12891 6 4.56672 6H11.45L16 10.4211V20.4777C16 20.9031 15.8483 21.2632 15.545 21.5579C15.2417 21.8526 14.8711 22 14.4333 22H4.56672ZM10.8 11.0526V7.26316H4.56672C4.49998 7.26316 4.43888 7.29018 4.38342 7.34421C4.32781 7.3981 4.3 7.45747 4.3 7.52232V20.4777C4.3 20.5425 4.32781 20.6019 4.38342 20.6558C4.43888 20.7098 4.49998 20.7368 4.56672 20.7368H14.4333C14.5 20.7368 14.5611 20.7098 14.6166 20.6558C14.6722 20.6019 14.7 20.5425 14.7 20.4777V11.0526H10.8Z" fill="#ffffff"/>
		<path d="M17 21.94V20.8H18.57V7.29H17V6H21.31V7.29H19.74V20.8H21.31V21.94H17Z" fill="#ffffff"/>
		<path d="M3 1H4.14V2.57H14.79V1H15.93V5.31H14.79V3.74H4.14V5.31H3V1Z" fill="#ffffff"/>
	</g>
</svg>
