<svg width="11" height="24" viewBox="0 0 11 24" fill="none" xmlns="http://www.w3.org/2000/svg">
<g clip-path="url(#clip0_10192_3705)">
<path d="M5.49389 5.56146H5.51847C6.80897 5.56146 7.85366 4.50391 7.85366 3.19754C7.85366 1.89116 6.80897 0.833618 5.51847 0.833618H5.49389C4.20338 0.833618 3.15869 1.89116 3.15869 3.19754C3.15869 4.50391 4.20338 5.56146 5.49389 5.56146Z" stroke="#C4C4C4" stroke-width="1.35" stroke-miterlimit="10"/>
<path d="M7.82907 18.4386V11.3468C7.82907 10.0405 6.78438 8.98291 5.49388 8.98291H3.15868C1.86818 8.98291 0.823486 10.0405 0.823486 11.3468C0.823486 12.6532 1.86818 13.7107 3.15868 13.7107V20.8025C3.15868 22.1089 4.20337 23.1664 5.49388 23.1664H7.82907C9.11958 23.1664 10.1643 22.1089 10.1643 20.8025C10.1643 19.4961 9.11958 18.4386 7.82907 18.4386Z" stroke="#C4C4C4" stroke-width="1.35" stroke-miterlimit="10"/>
</g>
<defs>
<clipPath id="clip0_10192_3705">
<rect width="11" height="24" fill="white"/>
</clipPath>
</defs>
</svg>
