<svg width="128" height="52" viewBox="0 0 128 52" fill="none" xmlns="http://www.w3.org/2000/svg">
<g clip-path="url(#clip0_12046_2184)">
<path d="M110.044 0H17.9177C8.03078 0 0 8.04671 0 17.9533C0 20.2307 0.416691 22.3942 1.21219 24.4058C1.51524 25.3547 1.89405 26.3036 2.38651 27.2146C5.30334 32.8321 17.4632 50.1022 17.9935 50.8234L18.789 51.962L19.6224 50.8234C19.9633 50.3299 25.3803 42.7766 29.8881 35.9066H110.082C119.969 35.9066 128 27.8599 128 17.9533C128 8.04671 119.969 0 110.082 0L110.044 0Z" fill="#8F472A"/>
<path d="M61.6325 11.6905C68.2617 11.273 74.0196 17.346 71.4437 23.9504C68.5269 31.4277 56.9353 31.8453 53.4123 24.7095C50.344 18.5226 55.117 12.146 61.6325 11.6905ZM66.2919 20.762C66.2919 18.5606 64.5115 16.7387 62.2765 16.7387C60.0415 16.7387 58.2611 18.5226 58.2611 20.762C58.2611 23.0015 60.0415 24.7854 62.2765 24.7854C64.5115 24.7854 66.2919 23.0015 66.2919 20.762Z" fill="white"/>
<path d="M99.0967 6.11091C103.68 6.45251 109.4 5.27587 113.719 7.13572C119.439 9.56492 119.439 16.9284 113.795 19.3197C114.59 22.0146 115.878 24.5956 117.469 26.9109C119.06 29.2262 117.961 27.4423 118.113 27.708C118.264 27.9737 118.302 27.7839 118.113 27.9357L112.544 29.9474C110.537 27.708 109.59 24.7474 108.491 22.0146L105.082 22.4321V29.3401L104.93 29.4919H99.1346V6.11091H99.0967ZM105.044 17.3839C107.241 17.0423 112.204 17.1941 112.128 13.8919C112.128 12.7153 111.332 11.8802 110.234 11.5766C109.135 11.2729 109.022 11.3109 108.756 11.3109H105.233L105.082 11.4627V17.3839H105.044Z" fill="white"/>
<path d="M96.3314 27.5942C94.0585 28.8088 91.3311 29.5299 88.7552 29.7577C82.4669 30.289 75.9892 27.8978 74.0573 21.3693C70.9511 10.7416 82.2396 1.85985 91.7856 7.40145C93.566 8.42627 95.4222 10.362 96.1041 12.2978L90.7629 14.4233C87.0884 9.22335 79.1713 11.8803 79.6637 18.4467C80.0425 23.7606 86.1792 24.9372 90.384 23.4569V17.7255H96.3314V27.5942Z" fill="white"/>
<path d="M24.206 17.7255H30.0018L30.1533 17.8773V27.67C27.7668 28.7328 25.2287 29.5299 22.5771 29.7576C15.7585 30.3649 8.78838 27.4043 7.53831 20.0788C5.22756 6.1109 23.7893 0.569292 29.6608 11.5766C29.7366 11.7284 30.0396 12.108 29.8502 12.2598L24.5848 14.3854C21.327 9.98243 14.3948 11.1591 13.4856 16.8145C12.6144 22.3182 17.4631 24.5576 22.2361 23.9124C27.0092 23.2671 23.7514 23.7226 24.1681 23.3051V17.7255H24.206Z" fill="white"/>
<path d="M37.9188 22.0145C38.79 26.1897 44.2828 26.4934 46.3663 23.1153L51.2529 25.2408C49.7377 27.9357 46.6693 29.378 43.6767 29.7196C36.896 30.5167 30.532 25.7342 32.3124 18.4846C34.661 8.80578 50.5332 9.48899 51.1393 20.0788C51.1393 20.6481 51.215 21.5591 50.9877 22.0145H37.9188ZM45.0783 18.4846C44.4722 14.6131 38.7522 14.689 38.1082 18.4846H45.0783Z" fill="white"/>
</g>
<defs>
<clipPath id="clip0_12046_2184">
<rect width="128" height="52" fill="white"/>
</clipPath>
</defs>
</svg>
