<svg width="20" height="20" viewBox="0 0 20 20" fill="none" xmlns="http://www.w3.org/2000/svg">
<path d="M18.2677 1.72979L18.7972 1.19857V1.19857L18.2677 1.72979ZM4.5 18.9753V19.7253C4.69848 19.7253 4.88886 19.6466 5.02944 19.5065L4.5 18.9753ZM1 18.9753H0.25C0.25 19.3895 0.585786 19.7253 1 19.7253L1 18.9753ZM1 15.4161L0.470557 14.8849C0.329362 15.0256 0.25 15.2168 0.25 15.4161H1ZM15.2616 2.26101C15.9452 1.57966 17.0546 1.57966 17.7383 2.26101L18.7972 1.19857C17.5282 -0.0661912 15.4717 -0.0661912 14.2027 1.19857L15.2616 2.26101ZM17.7383 2.26101C18.4205 2.94096 18.4205 4.04235 17.7383 4.72231L18.7972 5.78474C20.0675 4.51859 20.0675 2.46472 18.7972 1.19857L17.7383 2.26101ZM17.7383 4.72231L3.97056 18.4441L5.02944 19.5065L18.7972 5.78474L17.7383 4.72231ZM4.5 18.2253H1V19.7253H4.5V18.2253ZM14.2027 1.19857L0.470557 14.8849L1.52944 15.9474L15.2616 2.26101L14.2027 1.19857ZM0.25 15.4161V18.9753H1.75V15.4161H0.25ZM12.7027 3.756L16.2383 7.27973L17.2972 6.2173L13.7616 2.69357L12.7027 3.756Z" fill="white"/>
</svg>
